<?xml version="1.0" encoding="utf-8"?>
<!-- Svg Vector Icons : http://www.onlinewebfonts.com/icon -->
<!DOCTYPE svg PUBLIC "-//W3C//DTD SVG 1.1//EN" "http://www.w3.org/Graphics/SVG/1.1/DTD/svg11.dtd">
<svg version="1.1" xmlns="http://www.w3.org/2000/svg" xmlns:xlink="http://www.w3.org/1999/xlink" x="0px" y="0px" viewBox="0 0 1000 1000" enable-background="new 0 0 1000 1000" xml:space="preserve">
<metadata> Svg Vector Icons : http://www.onlinewebfonts.com/icon </metadata>
<g><g transform="translate(0.000000,511.000000) scale(0.100000,-0.100000)"><path d="M1673.5,4233.5c-468.2-548.3-738.2-733.9-1168.4-788.8c-278.4-38-409.1-147.6-404.9-341.7c8.4-265.7,177.2-354.3,565.2-291c337.4,50.6,797.2,278.4,1062.9,523l202.5,189.8l219.3-194c801.4-704.4,1851.7-712.8,2615.2-12.6l236.2,215.1l236.2-215.1c763.4-696,1813.8-691.8,2615.2,12.6l215.1,189.8l206.7-189.8c270-248.9,729.7-476.6,1067.2-523c392.3-54.8,552.5,29.5,552.5,295.3c0,206.7-109.6,299.5-400.7,341.7c-426,54.8-696,240.4-1164.2,788.8c-202.5,240.4-337.4,240.4-539.9,0c-501.9-586.3-750.8-750.8-1189.5-784.5c-405-29.5-708.6,118.1-1075.6,510.4c-147.6,160.3-270,307.9-270,324.8s-54.8,54.8-126.5,84.4c-101.2,42.2-151.8,42.2-253.1,0c-67.5-29.5-126.5-67.5-126.5-84.4s-122.3-164.5-270-324.8c-367-392.3-670.7-539.9-1075.6-510.4c-438.7,33.7-700.2,206.7-1210.6,809.9C2006.7,4474,1871.7,4465.5,1673.5,4233.5z"/><path d="M1580.6,648.2C1222.1,209.5,922.6,7.1,564.1-39.3c-341.7-46.4-375.4-63.3-430.2-198.3C66.4-393.7,117-587.7,235.1-650.9c122.3-67.5,434.5-50.6,712.9,37.9c303.7,92.8,594.7,274.2,822.5,506.2l168.7,173l210.9-202.5c434.5-413.4,873.1-577.9,1442.6-548.3c295.3,16.9,396.5,42.2,658,172.9c168.7,84.4,409.1,240.4,531.5,345.9l219.3,198.3L5225-165.9c118.1-105.4,358.5-261.5,527.3-345.9c261.5-130.7,362.8-156.1,658-172.9c569.4-29.5,1008.1,135,1442.5,548.3l210.9,202.5l168.7-173c409.2-421.8,1155.8-696,1514.3-561c109.7,42.2,185.6,261.5,139.2,396.5c-46.4,139.2-156.1,198.3-426,227.7c-367,42.2-670.7,244.7-1037.7,691.8c-189.8,227.8-236.2,261.5-362.7,261.5c-126.5,0-172.9-33.7-375.4-282.6C7296.1,142,6988.2-35.1,6541.1-39.3c-485.1,0-725.5,151.8-1290.7,818.3c-160.3,189.8-345.9,181.4-518.8-25.3c-556.8-649.6-784.6-793-1269.6-793c-455.5,4.2-721.3,168.7-1227.5,750.8c-135,156.1-198.2,198.3-303.7,198.3C1821.1,909.7,1762,867.5,1580.6,648.2z"/><path d="M7924.6-2603.9c-50.6-25.3-147.6-126.5-215.1-219.3c-687.5-944.9-1632.4-949.1-2353.7-16.9c-177.2,227.8-202.5,248.9-354.3,248.9c-156.1,0-181.4-21.1-379.6-270c-367-464-725.5-670.6-1164.2-674.9c-438.7,0-755,210.9-1269.6,835.2c-135,164.5-362.7,156.1-510.4-25.3c-493.5-586.3-687.6-725.5-1147.3-809.9c-320.6-63.3-409.2-118.1-421.8-257.3c-16.9-164.5,0-232,92.8-316.4c253.1-232,1176.8,75.9,1611.3,539.9l122.3,130.7l232-210.9c797.2-729.7,1830.7-717.1,2644.7,29.5l189.8,173l189.8-173c814.1-746.6,1847.5-759.2,2644.7-29.5l232,210.9l122.3-130.7c307.9-324.8,944.9-624.3,1341.4-624.3c244.6,0,383.8,147.6,366.9,383.8c-8.4,143.4-118.1,215.1-421.8,270c-459.7,88.6-729.7,278.4-1143.1,809.9C8211.4-2574.4,8059.6-2528,7924.6-2603.9z"/></g></g>
</svg>